<svg id="Layer_5" enable-background="new 0 0 64 64" height="512" viewBox="0 0 64 64" width="512" xmlns="http://www.w3.org/2000/svg"><g><g><path d="m49 30h6v8h-6z" fill="#f0bc5e"/></g><g><circle cx="22" cy="26" fill="#f0bc5e" r="9"/></g><g><g><path d="m27 47h-18v-6h18z" fill="#f0bc5e"/></g></g><g><g><path d="m43 35h-6v-6h6z" fill="#f0bc5e"/></g></g><g><path d="m63 47v-18h-4v-4h-9c-1.641 0-3.088.806-4 2.031-.722-.97-1.774-1.68-3-1.93v-19.101c0-2.757-2.243-5-5-5h-28c-2.757 0-5 2.243-5 5v43.685c-2.361 1.127-4 3.53-4 6.315 0 3.859 3.141 7 7 7h43.217l10.286-4.676c.909-.413 1.497-1.325 1.497-2.324s-.588-1.911-1.496-2.324l-10.287-4.676h-1.773c.344-.591.556-1.268.556-2zm-13-20h7v14h-10v-11c0-1.654 1.346-3 3-3zm-5 3v11h-10v-14h7c1.654 0 3 1.346 3 3zm-12-1h-4v2h-1.431c.225-1.237.363-2.581.409-4h5.022zm-5.022-4c-.046-1.419-.184-2.763-.409-4h4.216c.626 1.221 1.034 2.57 1.164 4zm-9.957 0c.052-1.447.217-2.791.46-4h7.038c.244 1.209.408 2.553.46 4zm7.958 2c-.052 1.447-.217 2.791-.46 4h-7.038c-.244-1.209-.408-2.553-.46-4zm1.126-8c-.368-1.295-.837-2.422-1.391-3.341 1.874.675 3.518 1.834 4.764 3.341zm-2.096 0h-6.019c.789-2.473 1.935-4 3.009-4s2.221 1.527 3.01 4zm-8.114 0h-3.373c1.246-1.507 2.891-2.665 4.764-3.341-.554.919-1.023 2.046-1.391 3.341zm-4.681 2h4.216c-.225 1.237-.363 2.581-.409 4h-4.971c.13-1.43.538-2.779 1.164-4zm3.808 6c.046 1.419.184 2.763.409 4h-4.216c-.626-1.221-1.034-2.57-1.164-4zm.873 6c.368 1.295.837 2.422 1.391 3.341-1.874-.675-3.518-1.834-4.764-3.341zm2.096 0h6.019c-.789 2.473-1.935 4-3.009 4s-2.221-1.527-3.01-4zm8.114 0h1.895v1.471c-.988.818-2.1 1.451-3.291 1.878.556-.92 1.027-2.05 1.396-3.349zm13.895-27v3h-13.026c.635-.838 1.026-1.87 1.026-3v-3h9c1.654 0 3 1.346 3 3zm-20 0v-3h6v3c0 1.654-1.346 3-3 3s-3-1.346-3-3zm-11-3h9v3c0 1.13.391 2.162 1.026 3h-13.026v-3c0-1.654 1.346-3 3-3zm-3 8h34v14h-6.051c-.514-6.701-6.119-12-12.949-12-7.168 0-13 5.832-13 13s5.832 13 13 13c2.502 0 4.922-.725 7-2.056v10.056h13c0 .732.212 1.409.556 2h-34.556c-.34 0-.672.033-1 .08zm6 48h34.5l1.5 2h-36zm34.697-2h-34.697v-2h34.697l1.501 1zm-.197-4h-34.5v-2h36zm-44.5 3c0-2.757 2.243-5 5-5h3v10h-3c-2.757 0-5-2.243-5-5zm58 0c0 .217-.127.414-.324.504l-9.358 4.253-1.883-2.511 3.368-2.246-3.368-2.246 1.883-2.511 9.359 4.253c.196.09.323.287.323.504zm-17-9v-2h-13v-14h2v12h12 2 12v-12h2v14h-13v2c0 1.103-.897 2-2 2s-2-.897-2-2z"/><circle cx="24" cy="6" r="1"/><circle cx="38" cy="6" r="1"/><path d="m49 29h6v2h-6z"/><path d="m49 33h6v2h-6z"/><path d="m49 37h6v2h-6z"/><path d="m37 37h6v2h-6z"/></g></g></svg>