<svg id="Layer_3" enable-background="new 0 0 64 64" height="512" viewBox="0 0 64 64" width="512" xmlns="http://www.w3.org/2000/svg"><path d="m62 62v-4c0-5.523-4.477-10-10-10h-10c-5.523 0-10 4.477-10 10v4" fill="#c66b60"/><path d="m38 60c8.471 0 15.64-4.67 18.092-11.118-1.25-.562-2.633-.882-4.092-.882h-10c-5.523 0-10 4.477-10 10v1.173c1.888.529 3.901.827 6 .827z" fill="#e47c6e"/><path d="m52 58 1.945-9.808c-.63-.124-1.279-.192-1.945-.192h-1l-4 5z" fill="#c66b60"/><path d="m42 58 5-5-4-5h-1c-.666 0-1.315.068-1.945.192z" fill="#c66b60"/><path d="m43 48 4 5 4-5" fill="#db9b7c"/><path d="m40 42h-2c-1.657 0-3-1.343-3-3 0-1.657 1.343-3 3-3h2" fill="#db9b7c"/><path d="m54 36h2c1.657 0 3 1.343 3 3 0 1.657-1.343 3-3 3h-2" fill="#efbe9a"/><path d="m55 31v9c0 4.418-3.582 8-8 8-4.418 0-8-3.582-8-8v-9" fill="#db9b7c"/><path d="m45.5 47.855c3.701-.703 6.5-3.95 6.5-7.855v-10h-13v10c0 3.905 2.799 7.152 6.5 7.855z" fill="#efbe9a"/><path d="m49 29v1c0 3.314-2.686 6-6 6h-6v-5c0-3.866 3.134-7 7-7h6c3.866 0 7 3.134 7 7v5h-5c-1.657 0-3-1.343-3-3z" fill="#976947"/><path d="m53.937 25.213c-1.122-.765-2.477-1.213-3.937-1.213h-6c-3.866 0-7 3.134-7 7v5h6c3.314 0 6-2.686 6-6v3c0 1.037.526 1.951 1.326 2.49 2.262-2.274 3.674-5.458 3.674-8.99 0-.435-.022-.864-.063-1.287z" fill="#c18e59"/><path d="m32 62v-4c0-5.523-4.477-10-10-10h-10c-5.523 0-10 4.477-10 10v4" fill="#669e4f"/><path d="m8 60c8.471 0 15.64-4.67 18.092-11.118-1.25-.562-2.633-.882-4.092-.882h-10c-5.523 0-10 4.477-10 10v1.173c1.888.529 3.901.827 6 .827z" fill="#78b75b"/><path d="m22 58 1.945-9.808c-.63-.124-1.279-.192-1.945-.192h-1l-4 5z" fill="#669e4f"/><path d="m12 58 5-5-4-5h-1c-.666 0-1.315.068-1.945.192z" fill="#669e4f"/><path d="m13 48 4 5 4-5" fill="#db9b7c"/><path d="m10 42h-2c-1.657 0-3-1.343-3-3 0-1.657 1.343-3 3-3h2" fill="#db9b7c"/><path d="m24 36h2c1.657 0 3 1.343 3 3 0 1.657-1.343 3-3 3h-2" fill="#efbe9a"/><path d="m25 31v9c0 4.418-3.582 8-8 8-4.418 0-8-3.582-8-8v-9" fill="#db9b7c"/><path d="m15.5 47.855c3.701-.703 6.5-3.95 6.5-7.855v-10h-13v10c0 3.905 2.799 7.152 6.5 7.855z" fill="#efbe9a"/><path d="m19 29v1c0 3.314-2.686 6-6 6h-6v-5c0-3.866 3.134-7 7-7h6c3.866 0 7 3.134 7 7v5h-5c-1.657 0-3-1.343-3-3z" fill="#976947"/><path d="m23.937 25.213c-1.122-.765-2.477-1.213-3.937-1.213h-6c-3.866 0-7 3.134-7 7v5h6c3.314 0 6-2.686 6-6v3c0 1.037.526 1.951 1.326 2.49 2.262-2.274 3.674-5.458 3.674-8.99 0-.435-.022-.864-.063-1.287z" fill="#c18e59"/><path d="m55 2c-3.866 0-7 3.134-7 7 0 2.791 1.637 5.193 4 6.317v4.683h6v-4.683c2.363-1.124 4-3.527 4-6.317 0-3.866-3.134-7-7-7z" fill="#a1cdfb"/><path d="m48 9c0 1.934.798 3.67 2.067 4.935 4.467-.5 7.933-4.082 7.933-8.435 0-1.086-.224-2.12-.617-3.075-.745-.27-1.545-.425-2.383-.425-3.866 0-7 3.134-7 7z" fill="#c7e2fc"/><path d="m52 17h6v3h-6z" fill="#f5b953"/><path d="m9 2c-3.866 0-7 3.134-7 7 0 2.791 1.637 5.193 4 6.317v4.683h6v-4.683c2.363-1.124 4-3.527 4-6.317 0-3.866-3.134-7-7-7z" fill="#a1cdfb"/><path d="m2 9c0 1.934.798 3.67 2.067 4.935 4.467-.5 7.933-4.082 7.933-8.435 0-1.086-.224-2.12-.617-3.075-.745-.27-1.545-.425-2.383-.425-3.866 0-7 3.134-7 7z" fill="#c7e2fc"/><path d="m6 17h6v3h-6z" fill="#f5b953"/><path d="m13 37h-6v-2h6c2.757 0 5-2.243 5-5v-1h2v1c0 3.859-3.141 7-7 7z"/><path d="m17 49c-4.963 0-9-4.037-9-9v-4h2v4c0 3.859 3.141 7 7 7s7-3.141 7-7v-4h2v4c0 4.963-4.037 9-9 9z"/><path d="m27 37h-5c-2.206 0-4-1.794-4-4v-4h2v4c0 1.103.897 2 2 2h5z"/><path d="m9 43h-1c-2.206 0-4-1.794-4-4s1.794-4 4-4h1v2h-1c-1.103 0-2 .897-2 2s.897 2 2 2h1z"/><path d="m26 43h-1v-2h1c1.103 0 2-.897 2-2s-.897-2-2-2h-1v-2h1c2.206 0 4 1.794 4 4s-1.794 4-4 4z"/><path d="m28 36h-2v-5c0-3.309-2.691-6-6-6h-6c-3.309 0-6 2.691-6 6v5h-2v-5c0-4.411 3.589-8 8-8h6c4.411 0 8 3.589 8 8z"/><path d="m32 63h-30c-.553 0-1-.447-1-1v-4c0-6.065 4.935-11 11-11h10c6.065 0 11 4.935 11 11v4c0 .553-.447 1-1 1zm-29-2h28v-3c0-4.963-4.037-9-9-9h-10c-4.963 0-9 4.037-9 9z"/><path d="m17 54c-.304 0-.591-.138-.781-.375l-4-5 1.562-1.25 3.219 4.024 3.219-4.024 1.562 1.25-4 5c-.19.237-.477.375-.781.375z"/><path d="m12 59c-.097 0-.194-.014-.29-.043-.353-.106-.618-.399-.69-.761l-2-10 1.961-.393 1.634 8.168 3.679-3.679 1.414 1.414-5 5c-.191.191-.446.294-.708.294z"/><path d="m22 59c-.262 0-.517-.103-.707-.293l-5-5 1.414-1.414 3.679 3.679 1.634-8.168 1.961.393-2 10c-.072.361-.338.654-.69.761-.097.028-.194.042-.291.042z"/><path d="m43 37h-6v-2h6c2.757 0 5-2.243 5-5v-1h2v1c0 3.859-3.141 7-7 7z"/><path d="m47 49c-4.963 0-9-4.037-9-9v-4h2v4c0 3.859 3.141 7 7 7s7-3.141 7-7v-4h2v4c0 4.963-4.037 9-9 9z"/><path d="m57 37h-5c-2.206 0-4-1.794-4-4v-4h2v4c0 1.103.897 2 2 2h5z"/><path d="m39 43h-1c-2.206 0-4-1.794-4-4s1.794-4 4-4h1v2h-1c-1.103 0-2 .897-2 2s.897 2 2 2h1z"/><path d="m56 43h-1v-2h1c1.103 0 2-.897 2-2s-.897-2-2-2h-1v-2h1c2.206 0 4 1.794 4 4s-1.794 4-4 4z"/><path d="m58 36h-2v-5c0-3.309-2.691-6-6-6h-6c-3.309 0-6 2.691-6 6v5h-2v-5c0-4.411 3.589-8 8-8h6c4.411 0 8 3.589 8 8z"/><path d="m62 63h-30c-.553 0-1-.447-1-1v-4c0-6.065 4.935-11 11-11h10c6.065 0 11 4.935 11 11v4c0 .553-.447 1-1 1zm-29-2h28v-3c0-4.963-4.037-9-9-9h-10c-4.963 0-9 4.037-9 9z"/><path d="m47 54c-.304 0-.591-.138-.781-.375l-4-5 1.562-1.25 3.219 4.024 3.219-4.024 1.562 1.25-4 5c-.19.237-.477.375-.781.375z"/><path d="m42 59c-.097 0-.194-.014-.29-.043-.353-.106-.618-.399-.69-.761l-2-10 1.961-.393 1.634 8.168 3.679-3.679 1.414 1.414-5 5c-.191.191-.446.294-.708.294z"/><path d="m52 59c-.262 0-.517-.103-.707-.293l-5-5 1.414-1.414 3.679 3.679 1.634-8.168 1.961.393-2 10c-.072.361-.338.654-.69.761-.097.028-.194.042-.291.042z"/><path d="m12 21h-6c-.553 0-1-.447-1-1v-4.08c-2.449-1.42-4-4.069-4-6.92 0-4.411 3.589-8 8-8s8 3.589 8 8c0 2.851-1.551 5.5-4 6.92v4.08c0 .553-.447 1-1 1zm-5-2h4v-3.683c0-.386.222-.737.57-.903 2.084-.99 3.43-3.116 3.43-5.414 0-3.309-2.691-6-6-6s-6 2.691-6 6c0 2.298 1.346 4.424 3.43 5.414.348.166.57.518.57.903z"/><path d="m3 16h12v2h-12z"/><path d="m8 20h2v3h-2z"/><path d="m6 7h2v7h-2z"/><path d="m10 7h2v7h-2z"/><path d="m4 9h10v2h-10z"/><path d="m58 21h-6c-.553 0-1-.447-1-1v-4.08c-2.449-1.42-4-4.069-4-6.92 0-4.411 3.589-8 8-8s8 3.589 8 8c0 2.851-1.551 5.5-4 6.92v4.08c0 .553-.447 1-1 1zm-5-2h4v-3.683c0-.386.222-.737.57-.903 2.084-.99 3.43-3.116 3.43-5.414 0-3.309-2.691-6-6-6s-6 2.691-6 6c0 2.298 1.346 4.424 3.43 5.414.348.166.57.518.57.903z"/><path d="m49 16h12v2h-12z"/><path d="m54 20h2v3h-2z"/><path d="m52 7h2v7h-2z"/><path d="m56 7h2v7h-2z"/><path d="m50 9h10v2h-10z"/><path d="m30 14h-6c-2.757 0-5-2.243-5-5s2.243-5 5-5h5v2h-5c-1.654 0-3 1.346-3 3s1.346 3 3 3h6c1.654 0 3-1.346 3-3 0-.254-.032-.507-.095-.751l1.938-.498c.104.407.157.827.157 1.249 0 2.757-2.243 5-5 5z"/><path d="m40 14h-5v-2h5c1.654 0 3-1.346 3-3s-1.346-3-3-3h-6c-1.654 0-3 1.346-3 3 0 .254.032.507.095.751l-1.938.498c-.104-.407-.157-.827-.157-1.249 0-2.757 2.243-5 5-5h6c2.757 0 5 2.243 5 5s-2.243 5-5 5z"/></svg>